<svg xmlns="http://www.w3.org/2000/svg" viewBox="0 0 21 21"><path d="M7.7 16.746c.004 1.004.015 2.428.015 2.715m5.598-.066c0-.378.013-2.47.013-4.004 0-1.07-.345-1.768-.731-2.123 2.4-.284 4.92-1.254 4.92-5.658 0-1.252-.418-2.275-1.109-3.078.112-.289.48-1.455-.105-3.034 0 0-.904-.309-2.96 1.175-.862-.254-1.925-.382-2.841-.386-.916.004-1.978.132-2.838.386-2.06-1.484-2.964-1.175-2.964-1.175-.585 1.579-.216 2.745-.104 3.034-.69.803-1.11 1.826-1.11 3.078 0 4.393 2.515 5.377 4.909 5.667-.308.286-.447 2.37-.543 3.11-.615.294-2.175.8-3.136-.953 0 0-.57-1.1-1.652-1.181" stroke-linecap="round" stroke-miterlimit="1" stroke-linejoin="round"/></svg>