<svg xmlns="http://www.w3.org/2000/svg" xmlns:xlink="http://www.w3.org/1999/xlink"><symbol id="htmlacademy" viewBox="0 0 27 34"><path d="M13.62.017L13.472 0 0 1.412v24.661l13.472 8.017 13.43-7.99.042-.026V1.412L13.62.017zm11.399 12.11L13.495 5.334l-.001-.104-.087.05-.088-.056v.109L1.925 12.118V3.147l11.547-1.212 11.547 1.212v8.98zm-11.614-5.34L24.923 13.5l-4.479 2.64-7.093-4.221-.013 1.415 5.904 3.513-.86.507-5.031-2.992-.013 1.415 3.827 2.275-.782.523-3.032-1.787-.013 1.413 1.852 1.091-1.8 1.081-11.356-6.751 11.371-6.835zm-11.48 8.34l11.411 6.791.015 1.044-7.941-4.728-.015 1.416 7.979 4.796.017 1.076-7.972-4.741-.013 1.415 8.021 4.821.045.026 8.143-4.872v-1.268l-.011-.148v-3.761l3.415-2.036v10.02L13.472 31.85 1.925 24.979v-9.852z"/></symbol><symbol id="icon-contacts-mail" viewBox="0 0 17 13"><path d="M15.6 11.6H1.4V5.8H0V13h17V5.8h-1.4v5.8zM0 0v2.3l8.5 7.1L17 2.3V0H0zm15.6 1.6L8.5 7.5 1.4 1.6v-.2h14.2v.2z"/></symbol><symbol id="icon-contacts-phone" viewBox="0 0 20 20"><path d="M17.9 9.4H9.4v1.2h8.5l-2.1 2.1.9.9 3.1-3.1c.2-.2.2-.6 0-.9l-3.1-3.1-.9.9 2.1 2zm-9.8 10v-6.2c0-.3-.3-.6-.6-.6H3.1c0 .7.6 1.2 1.2 1.2h2.5v5H3.1c-1 .1-1.8-.7-1.9-1.7v-14c0-1 .8-1.8 1.7-1.8h3.9v5H4.4c-.7 0-1.2.6-1.2 1.2h4.4c.3 0 .6-.3.6-.6V.6C8.1.3 7.8 0 7.5 0H3.1C1.5-.1.1 1.2 0 2.9v13.9c-.1 1.7 1.2 3.1 2.9 3.1h4.6c.3.1.6-.2.6-.5z"/></symbol><symbol id="icon-social-fb" viewBox="0 0 10 19"><path d="M7.1 19H2v-8.8H0V5.8h1.9c-.1-2 .2-3.4 1.1-4.4C3.8.5 5 .1 6.5 0H10v4.2H7.2c-.1.2-.2.8-.2 1.6h3v4.4H7.1V19zm-4-1h2.8V9.1h2.9V6.8H5.9v-.5c0-1.4 0-2.6.7-3.1l.1-.1h2.1V1H6.5c-1.2.1-2 .4-2.6 1-.8.8-1 2.3-.8 4.2l.1.6H1.1v2.3h2V18z"/></symbol><symbol id="icon-social-github" viewBox="0 0 21 21"><path d="M7.7 16.746c.004 1.004.015 2.428.015 2.715m5.598-.066c0-.378.013-2.47.013-4.004 0-1.07-.345-1.768-.731-2.123 2.4-.284 4.92-1.254 4.92-5.658 0-1.252-.418-2.275-1.109-3.078.112-.289.48-1.455-.105-3.034 0 0-.904-.309-2.96 1.175-.862-.254-1.925-.382-2.841-.386-.916.004-1.978.132-2.838.386-2.06-1.484-2.964-1.175-2.964-1.175-.585 1.579-.216 2.745-.104 3.034-.69.803-1.11 1.826-1.11 3.078 0 4.393 2.515 5.377 4.909 5.667-.308.286-.447 2.37-.543 3.11-.615.294-2.175.8-3.136-.953 0 0-.57-1.1-1.652-1.181" stroke-linecap="round" stroke-miterlimit="1" stroke-linejoin="round"/></symbol><symbol id="icon-social-gmail" viewBox="0 0 32 32"><path d="M6 6.998c-1.1 0-2 .9-2 2v14c0 1.1.9 2 2 2h1.424a.5.5 0 00.152 0h16.848a.5.5 0 00.152 0H26c1.1 0 2-.9 2-2v-14c0-1.1-.9-2-2-2H6zm0 1h1.322l8.36 6.885a.5.5 0 00.636 0l8.36-6.885H26c.563 0 1 .437 1 1v14c0 .563-.437 1-1 1h-1v-13a.5.5 0 00-.818-.387L16 17.35l-8.182-6.74a.5.5 0 00-.324-.113.5.5 0 00-.494.5v13H6c-.563 0-1-.437-1-1v-14c0-.563.437-1 1-1zm2.895 0h14.21L16 13.85 8.895 7.998zM8 12.057l7.682 6.326a.5.5 0 00.636 0L24 12.057v11.941H8V12.057z" style="line-height:normal;text-indent:0;text-align:start;text-decoration-line:none;text-decoration-style:solid;text-decoration-color:#000;text-transform:none;block-progression:tb;white-space:normal;isolation:auto;mix-blend-mode:normal;solid-color:#000;solid-opacity:1"/></symbol><symbol id="icon-social-insta" viewBox="0 0 16.1 16"><path d="M11.8 1C13.6 1 15 2.4 15 4.2v7.7c0 1.7-1.4 3.1-3.1 3.1H4.2C2.4 15 1 13.6 1 11.8V4.2C1 2.4 2.4 1 4.2 1h7.6m0-1H4.2C1.9 0 0 1.9 0 4.2v7.7C0 14.1 1.9 16 4.2 16h7.7c2.3 0 4.2-1.9 4.2-4.2V4.2C16 1.9 14.1 0 11.8 0z"/><path d="M8 4.9c1.7 0 3.1 1.4 3.1 3.1S9.7 11.1 8 11.1 4.9 9.7 4.9 8 6.3 4.9 8 4.9m0-1C5.7 3.9 3.9 5.7 3.9 8s1.8 4.1 4.1 4.1 4.1-1.8 4.1-4.1S10.3 3.9 8 3.9z"/><circle cx="12.3" cy="3.7" r=".9"/></symbol><symbol id="icon-social-twitter" viewBox="0 0 511.271 511.271"><path d="M508.342 94.243c-2.603-2.603-6.942-3.471-10.414-2.603l-17.356 6.075c10.414-12.149 17.356-25.166 21.695-37.315 1.736-4.339.868-7.81-1.736-10.414-2.603-2.603-6.942-3.471-10.414-1.736-24.298 10.414-45.125 19.092-62.481 24.298 0 .868-.868 0-1.736 0-13.885-7.81-47.729-25.166-72.027-25.166-61.614.868-111.078 52.936-111.078 116.285v3.471c-90.251-17.356-139.715-43.39-193.519-99.797L40.6 58.663l-5.207 10.414c-29.505 56.407-8.678 107.607 25.166 142.319-15.62-2.603-26.034-7.81-35.58-15.62-3.471-2.603-7.81-3.471-12.149-.868-3.471 1.736-5.207 6.942-4.339 11.281 12.149 40.786 42.522 73.763 75.498 93.722-15.62 0-28.637-1.736-41.654-10.414-3.471-1.736-8.678-1.736-12.149.868s-5.207 6.942-3.471 11.281c15.62 44.258 45.993 67.688 94.59 73.763-25.166 14.753-58.142 26.902-109.342 27.77-5.207 0-9.546 3.471-11.281 7.81-1.736 5.207 0 9.546 3.471 13.017 31.241 25.166 100.664 39.919 186.576 39.919 152.732 0 277.695-136.244 277.695-303.729v-2.603c19.092-9.546 34.712-27.77 42.522-52.936.867-3.472-.001-7.811-2.604-10.414zm-52.068 49.464l-5.207 1.736v14.753c0 157.939-117.153 286.373-260.339 286.373-78.97 0-131.905-13.017-160.542-26.902 59.878-4.339 94.59-23.431 121.492-44.258l21.695-15.62h-26.034c-49.464 0-79.837-13.885-97.193-46.861 15.62 5.207 32.108 5.207 50.332 4.339 6.942-.868 13.885-.868 20.827-.868l2.603-17.356c-32.976-9.546-72.027-39.051-91.119-78.969 17.356 7.81 36.447 9.546 53.803 9.546h26.902L91.8 213.999c-18.224-13.017-72.027-59.01-45.993-124.963 55.539 54.671 108.475 79.837 203.932 97.193l10.414 1.736v-24.298c0-53.803 41.654-98.061 93.722-98.929 19.959-.868 52.936 17.356 62.481 22.563 5.207 2.603 10.414 3.471 15.62 1.736 13.017-4.339 28.637-10.414 45.993-17.356-7.81 13.017-18.224 25.166-32.108 36.448-3.471 2.603-4.339 7.81-2.603 12.149 1.736 4.339 6.942 6.075 11.281 4.339l33.844-11.281c-6.075 11.28-15.621 24.297-32.109 30.371z"/></symbol><symbol id="icon-social-vk" viewBox="0 0 22 12"><path d="M17.6 12c-.3 0-.9-.1-1.5-.5-.5-.3-.9-.7-1.3-1.2-.3-.3-.9-.9-1.1-.9-.2.1-.4.7-.3 1.2 0 .1 0 .6-.3.9-.3.3-.8.4-.9.4h-1.4c-.7 0-3.2-.2-5.4-2.3C2.5 7.1.2 2.2.1 2 0 1.6-.1 1.2.2.9s.8-.4 1-.4h3.1c.1 0 .4.1.7.3.3.2.4.5.5.6.7 1.5 1.5 2.8 2.6 4 .1-.4.2-1.4.1-2.3 0-.4-.1-.8-.2-1-.1-.1-.3-.2-.5-.2l-.6-.5c0-.5.5-.9.9-1.1.5-.2 1.3-.3 2.3-.3h.5c.9 0 1.2.1 1.6.1 1.2.3 1.2 1.3 1.1 2.5v1.6c0 .3 0 .8.1 1 .2-.1.6-.5 1.5-1.9.6-.9 1-1.9 1.1-2.1.1-.3.4-.7 1.2-.7h3.4c.7 0 1.2.2 1.3.7.2.5.1 1.3-1.7 3.5-.3.3-.5.6-.7.9-.5.4-.9 1-.9 1.1s.5.5.9.9c1.1.9 1.9 1.7 2.2 2.3.4.6.3 1 .2 1.3-.3.7-1.2.7-1.4.8h-2.9zm-3.9-3.7c.7 0 1.2.6 1.8 1.2.4.4.7.8 1.1 1 .5.3 1 .3 1 .3h2.9c.1 0 .3-.1.4-.1 0 0 0-.1-.1-.1-.3-.5-1-1.3-2-2.1-.9-.7-1.3-1.1-1.4-1.7 0-.6.4-1.1 1.2-2.1.2-.2.4-.5.7-.8 1.1-1.4 1.4-2 1.5-2.3h-3.9c0 .4-.5 1.5-1.1 2.4-1.4 2.1-2 2.4-2.5 2.4-.1 0-.3 0-.4-.1-.7-.4-.7-1.4-.7-2.1V2.6c.1-1.3 0-1.3-.3-1.4-.3-.1-.5-.1-1.4-.1H10c-.5 0-1 0-1.4.1l.2.2c.4.5.4 1.5.4 1.7.1 1.3 0 2.9-.7 3.3-.1 0-.2.1-.4.1-.6 0-1.3-.7-2.5-2.5C5 2.9 4.5 1.8 4.5 1.8s0-.1-.1-.1-.2-.1-.2-.1h-3c.4.9 2.5 5 4.8 7.2 2 1.9 4.3 2 4.7 2h1.4s.2 0 .2-.1v-.1c0-.2 0-2 1.2-2.3h.2z"/></symbol></svg>